<svg xmlns="http://www.w3.org/2000/svg" viewBox="0 0 100 100">
  <!-- Monochrome fallback — all dark gray -->
  <!-- C-arc -->
  <path d="M 77.6 82.9 A 43 43 0 1 0 77.6 17.1"
        fill="none" stroke="#374151" stroke-width="9" stroke-linecap="round"/>
  <!-- Bars -->
  <rect x="36" y="51" width="8" height="19" rx="2" fill="#374151"/>
  <rect x="47" y="41" width="8" height="29" rx="2" fill="#374151"/>
  <rect x="58" y="33" width="8" height="37" rx="2" fill="#374151"/>
  <!-- ECG -->
  <polyline points="0,62 11,62 15,56 18,72 22,16 26,62 100,62"
            fill="none" stroke="#374151" stroke-width="2.8"
            stroke-linecap="round" stroke-linejoin="round"/>
  <!-- Starburst -->
  <g stroke="#374151" stroke-width="2" stroke-linecap="round">
    <line x1="22" y1="10" x2="22" y2="6"/>
    <line x1="26" y1="12" x2="29" y2="9"/>
    <line x1="28" y1="16" x2="32" y2="16"/>
    <line x1="26" y1="20" x2="29" y2="23"/>
    <line x1="18" y1="12" x2="15" y2="9"/>
    <line x1="16" y1="16" x2="12" y2="16"/>
    <line x1="18" y1="20" x2="15" y2="23"/>
  </g>
</svg>
